<svg id="visual" viewBox="0 0 900 600" width="900" height="600" xmlns="http://www.w3.org/2000/svg" xmlns:xlink="http://www.w3.org/1999/xlink" version="1.1"><rect x="0" y="0" width="900" height="600" fill="#140021"></rect><path d="M0 397L64 397L64 295L129 295L129 290L193 290L193 349L257 349L257 282L321 282L321 253L386 253L386 305L450 305L450 339L514 339L514 311L579 311L579 313L643 313L643 302L707 302L707 386L771 386L771 331L836 331L836 347L900 347L900 267L900 601L900 601L836 601L836 601L771 601L771 601L707 601L707 601L643 601L643 601L579 601L579 601L514 601L514 601L450 601L450 601L386 601L386 601L321 601L321 601L257 601L257 601L193 601L193 601L129 601L129 601L64 601L64 601L0 601Z" fill="#5cff92"></path><path d="M0 377L64 377L64 353L129 353L129 411L193 411L193 357L257 357L257 398L321 398L321 390L386 390L386 392L450 392L450 352L514 352L514 380L579 380L579 407L643 407L643 387L707 387L707 434L771 434L771 441L836 441L836 430L900 430L900 448L900 601L900 601L836 601L836 601L771 601L771 601L707 601L707 601L643 601L643 601L579 601L579 601L514 601L514 601L450 601L450 601L386 601L386 601L321 601L321 601L257 601L257 601L193 601L193 601L129 601L129 601L64 601L64 601L0 601Z" fill="#52b16d"></path><path d="M0 481L64 481L64 450L129 450L129 485L193 485L193 434L257 434L257 429L321 429L321 413L386 413L386 500L450 500L450 421L514 421L514 453L579 453L579 418L643 418L643 423L707 423L707 447L771 447L771 479L836 479L836 435L900 435L900 409L900 601L900 601L836 601L836 601L771 601L771 601L707 601L707 601L643 601L643 601L579 601L579 601L514 601L514 601L450 601L450 601L386 601L386 601L321 601L321 601L257 601L257 601L193 601L193 601L129 601L129 601L64 601L64 601L0 601Z" fill="#40694a"></path><path d="M0 534L64 534L64 503L129 503L129 482L193 482L193 547L257 547L257 473L321 473L321 547L386 547L386 540L450 540L450 517L514 517L514 497L579 497L579 485L643 485L643 519L707 519L707 513L771 513L771 544L836 544L836 507L900 507L900 501L900 601L900 601L836 601L836 601L771 601L771 601L707 601L707 601L643 601L643 601L579 601L579 601L514 601L514 601L450 601L450 601L386 601L386 601L321 601L321 601L257 601L257 601L193 601L193 601L129 601L129 601L64 601L64 601L0 601Z" fill="#282828"></path></svg>