<svg xmlns="http://www.w3.org/2000/svg" version="1.1" xmlnsXlink="http://www.w3.org/1999/xlink" xmlnsSvgjs="http://svgjs.dev/svgjs" viewBox="0 0 800 800"><defs><linearGradient x1="50%" y1="0%" x2="50%" y2="100%" id="ccchaos-grad"><stop stop-color="#28c27f" stop-opacity="1" offset="0%"></stop><stop stop-color="hsl(0, 0%, 0%)" stop-opacity="1" offset="100%"></stop></linearGradient></defs><g stroke-width="2" stroke="url(#ccchaos-grad)" fill="none" stroke-linecap="round"><path d="M409.44 118.1C419.53 123.05 429.77 127.08 440.13 129.71 450.5 130.27 460.99 129.34 471.54 127.3 482.08 124.19 492.64 121.24 503.12 119.11 513.5 117.9 523.7 118.58 533.57 121.36 543.17 125.89 552.27 132.41 560.71 140.53 568.64 149.57 575.71 159.29 581.76 169.18 587.16 178.59 591.44 187.39 594.58 195.35 597.99 204.96 600.66 218.44 601.47 223.53 602.93 226.45 605.14 229.72 608.45 233.5 613.46 237.46 619.96 242.2 628.01 247.76 637.72 253.75 648.58 260.56 660.14 268.11 672.04 276.07 683.43 284.64 693.55 293.66 702.03 302.97 707.98 312.58 710.91 322.35 711.08 332.26 708.07 342.22 702.16 352.12 694.55 362.06 685.43 371.87 675.75 381.46 667.1 391.06 659.94 400.2 654.87 408.89 652.64 417.6 652.86 425.89 655.24 433.84 659.83 441.9 665.43 449.76 671.27 457.54 677.19 465.64 681.88 473.91 684.77 482.52 685.99 491.75 684.73 501.61 680.97 512.24 675.21 523.68 667.29 536 657.63 549.17 646.81 562.9 635.07 577.12 622.88 591.47 610.69 605.43 598.74 618.61 587.3 630.38 576.61 640.34 566.68 647.91 557.53 652.62 549.28 654.76 541.69 653.96 534.63 650.5 528.24 645.72 522.11 639.79 516.06 633.83 510.36 629.61 504.51 627.57 498.37 628.66 492.34 633.78 485.89 642.6 478.97 654.65 472.03 669.1 464.57 684.33 456.59 698.56 448.57 710.32 440.04 717.83 431.02 719.98 421.97 716.94 412.47 708.65 402.54 696.28 392.61 682.33 382.51 668.59 372.3 657.08 362.12 649.59 351.86 646.6 341.56 648.1 331.32 653.98 321.08 662.49 310.9 672.02 300.83 681.62 290.87 689.08 281.12 693.23 271.54 693.89 262.23 690.21 253.29 682.5 244.61 671.6 236.38 658.13 228.68 643.18 221.31 627.79 214.52 612.88 208.35 599.2 202.48 587.32 197.2 577.49 192.49 569.69 185.84 562.07 174.17 554.95 168.6 552.82 162.39 550.49 148.76 540.7 141.4 532.73 136.18 526.55 131.14 519.39 126.45 511.4 121.86 503.07 117.91 494.12 114.74 484.71 112.06 475.14 110.35 465.27 109.67 455.22 109.54 445.13 110.35 434.94 112.02 424.71 113.88 414.47 116.25 404.42 118.92 394.55 121.28 384.65 123.69 374.85 126.04 365.12 127.83 355.26 129.55 345.36 131.24 335.34 132.51 325.1 133.95 314.65 135.68 303.96 137.38 293 139.64 281.78 142.55 270.35 145.8 258.81 149.87 247.22 154.76 235.75 160.14 224.58 166.34 213.89 173.26 203.96 180.57 194.87 188.47 186.93 196.83 180.37 205.34 174.96 214.13 171.02 223.11 168.5 232.01 166.75 240.97 165.94 249.95 165.7 258.7 165.09 267.44 164.18 276.16 162.54 284.63 159.39 293.12 155.01 301.64 149.35 309.96 142.24 318.39 134.41 326.96 126.39 335.4 118.5 344.04 111.73 352.92 106.71 361.73 103.52 370.82 102.76 380.23 104.44 389.61 107.72 399.34 112.52 409.43 118.1" stroke-dasharray="10 4" transform="rotate(0, 400, 400)" opacity="0.68"></path><path d="M414.38 129.22C424.19 134.13 434.08 138.21 444 140.98 453.93 141.79 463.87 141.15 473.78 139.39 483.64 136.47 493.41 133.52 502.98 131.16 512.41 129.46 521.53 129.41 530.21 131.25 538.61 134.73 546.41 140.19 553.48 147.34 560.11 155.61 565.87 164.85 570.68 174.56 574.99 184.15 578.34 193.46 580.76 202.18 583.61 213.34 587.06 229.98 589.17 236.15 591.72 239.49 595.13 242.86 599.66 246.45 605.78 249.94 613.23 253.95 621.98 258.59 632.04 263.44 642.91 269 654.13 275.26 665.38 281.81 675.88 288.99 684.97 296.71 692.38 304.66 697.35 313.03 699.48 321.7 699.11 330.51 695.87 339.51 690.03 348.61 682.72 357.75 674.07 366.92 664.91 376.08 656.69 385.23 649.78 394.13 644.72 402.79 642.22 411.48 641.93 420 643.64 428.4 647.47 436.95 652.35 445.52 657.64 454.25 663.25 463.3 667.97 472.7 671.24 482.57 673.2 492.96 673 503.99 670.57 515.7 666.31 527.93 659.94 540.78 651.78 554.1 642.36 567.5 631.8 580.9 620.51 593.88 608.92 606 597.25 616.88 585.79 625.99 574.78 633.17 564.31 637.94 554.45 640.03 545.33 640.02 536.82 637.64 528.85 633.34 521.52 628.47 514.55 623.24 507.8 618.63 501.46 616.18 495.12 616.15 488.67 619.21 482.41 625.95 475.88 635.87 469.02 648.38 462.2 662.62 454.97 677.08 447.32 690.17 439.65 700.66 431.54 707.04 422.99 708.42 414.41 705.07 405.42 696.97 396.01 685.16 386.61 671.9 377.05 658.75 367.39 647.49 357.76 639.77 348.06 636.07 338.35 636.48 328.71 641.06 319.1 648.34 309.6 656.99 300.21 666.24 290.99 674.04 282.01 679.26 273.22 681.65 264.74 680.17 256.66 674.9 248.83 666.47 241.46 655.15 234.62 641.86 228.05 627.49 222.03 612.84 216.58 598.7 211.34 585.66 206.6 574.13 202.34 564.31 198.1 556.39 194.2 550.11 190.55 545.19 184.76 540.33 172.65 533.54 166.02 529.74 161.08 526.97 156.07 523.35 151.08 518.83 145.84 514.01 140.83 508.26 136.19 501.68 131.72 494.82 127.89 487.23 124.87 479.03 122.35 470.68 120.78 461.85 120.23 452.64 120.21 443.37 121.12 433.8 122.86 423.97 124.8 414.13 127.22 404.28 129.94 394.42 132.37 384.53 134.83 374.59 137.24 364.57 139.11 354.46 140.87 344.21 142.58 333.78 143.83 323.22 145.2 312.45 146.79 301.49 148.28 290.44 150.25 279.25 152.78 268.02 155.59 256.92 159.14 246 163.47 235.45 168.25 225.42 173.83 216.09 180.15 207.7 186.88 200.22 194.25 193.95 202.13 189.02 210.26 185.06 218.74 182.36 227.49 180.81 236.26 179.66 245.16 179.09 254.14 178.74 262.99 177.71 271.85 176.13 280.71 173.66 289.39 169.68 298.07 164.52 306.76 158.23 315.28 150.75 323.87 142.8 332.55 134.91 341.1 127.38 349.8 121.09 358.67 116.61 367.48 113.92 376.51 113.57 385.78 115.51 395.03 118.91 404.55 123.7 414.37 129.22" stroke-dasharray="9 9" transform="rotate(4.04, 400, 400)" opacity="0.84"></path><path d="M417.52 140.34C427.01 145.21 436.48 149.31 445.89 152.21 455.3 153.26 464.61 152.93 473.79 151.46 482.9 148.78 491.8 145.91 500.4 143.41 508.84 141.33 516.88 140.63 524.4 141.62 531.65 144.07 538.27 148.43 544.16 154.53 549.67 161.85 554.39 170.36 558.27 179.62 561.82 189.09 564.59 198.59 566.67 207.8 568.69 216.3 570.29 224.13 571.66 231.23 574.54 240.03 584.06 253.71 591.98 259.53 599.02 263.06 607.2 266.86 616.4 271.06 626.59 275.25 637.26 280 647.99 285.33 658.48 290.81 668.03 296.88 676.07 303.51 682.46 310.29 686.5 317.56 687.9 325.24 687.06 333.01 683.64 341.11 677.9 349.47 670.9 357.87 662.72 366.47 654.07 375.24 646.28 384.02 639.62 392.76 634.6 401.48 631.87 410.23 631.12 419.02 632.21 427.91 635.3 436.94 639.48 446.18 644.18 455.72 649.38 465.54 653.98 475.79 657.47 486.52 659.98 497.61 660.66 509.22 659.36 521.31 656.46 533.61 651.58 546.19 644.92 558.82 636.97 571.14 627.73 582.99 617.55 593.99 606.85 603.83 595.79 612.14 584.66 618.52 573.7 623.09 563.04 625.39 552.8 625.38 543.09 623.82 533.89 620.53 525.19 616.02 517.04 611.64 509.29 607.54 501.84 604.56 494.8 603.99 487.88 605.91 481 610.75 474.34 618.83 467.56 629.56 460.6 642.25 453.72 656.08 446.56 669.64 439.08 681.55 431.62 690.8 423.8 696.12 415.62 696.79 407.43 693.2 398.88 685.3 389.98 674.04 381.09 661.47 372.07 648.91 363 637.93 353.95 630.06 344.87 625.73 335.83 625.15 326.85 628.47 317.95 634.51 309.19 642.16 300.56 650.84 292.13 658.69 283.98 664.62 276.01 668.38 268.38 668.83 261.16 665.82 254.17 659.83 247.62 650.84 241.57 639.55 235.74 626.72 230.39 612.98 225.54 599.09 220.8 585.61 216.48 573.06 212.54 561.76 208.52 551.95 204.74 543.61 201.12 536.63 195.25 528.8 182.68 518.01 175.79 513.41 170.72 510.53 165.62 507.15 160.58 503.14 155.35 499.04 150.39 494.18 145.85 488.56 141.52 482.78 137.85 476.26 134.99 469.07 132.64 461.77 131.23 453.87 130.81 445.44 130.91 436.97 131.9 428.03 133.7 418.66 135.7 409.3 138.16 399.74 140.92 390.02 143.41 380.3 145.94 370.39 148.41 360.32 150.35 350.21 152.18 339.91 153.92 329.43 155.19 318.93 156.53 308.27 158.02 297.52 159.35 286.84 161.07 276.18 163.27 265.68 165.67 255.48 168.74 245.67 172.52 236.44 176.71 227.84 181.66 220.08 187.33 213.36 193.43 207.5 200.18 202.8 207.49 199.31 215.1 196.54 223.15 194.77 231.52 193.82 240 192.93 248.7 192.27 257.53 191.52 266.32 189.86 275.18 187.49 284.07 184.14 292.84 179.35 301.62 173.49 310.41 166.69 319.07 158.97 327.77 151.02 336.52 143.37 345.17 136.27 353.91 130.52 362.77 126.59 371.56 124.41 380.51 124.44 389.63 126.62 398.73 130.11 408.02 134.9 417.51 140.34" stroke-dasharray="3 9" transform="rotate(8.08, 400, 400)" opacity="0.48"></path><path d="M418.49 151.46C427.6 156.27 436.6 160.39 445.44 163.4 454.27 164.68 462.91 164.66 471.32 163.51 479.65 161.11 487.68 158.38 495.33 155.83 502.83 153.47 509.86 152.24 516.34 152.46 522.59 153.96 528.21 157.23 533.14 162.2 537.81 168.46 541.79 176.04 545.08 184.6 548.2 193.64 550.75 203.01 552.84 212.39 555.06 221.38 557.09 229.92 559.13 237.89 561.78 245.03 564.82 251.53 568.45 257.45 573.16 262.57 578.75 267.31 585.31 271.83 593.07 275.85 601.73 279.91 611.15 284.15 621.25 288.19 631.55 292.6 641.63 297.45 651.28 302.29 659.85 307.64 666.86 313.5 672.25 319.42 675.44 325.84 676.19 332.73 674.95 339.67 671.39 347.03 665.78 354.78 659.1 362.54 651.37 370.66 643.23 379.12 635.86 387.58 629.47 396.2 624.5 404.96 621.58 413.76 620.43 422.77 620.95 432.02 623.34 441.38 626.81 451.06 630.89 461.1 635.62 471.33 639.98 481.96 643.54 492.99 646.41 504.18 647.76 515.71 647.43 527.44 645.72 539.08 642.2 550.66 636.98 561.9 630.5 572.54 622.66 582.36 613.75 591.01 604.16 598.41 593.98 604.17 583.49 608.02 572.93 610.31 562.43 610.66 552.14 609.16 542.17 606.71 532.58 603.15 523.38 599.04 514.63 595.61 506.24 592.96 498.18 591.79 490.5 593.09 483.02 596.82 475.66 603.2 468.55 612.34 461.44 623.57 454.27 636.2 447.21 649.43 439.99 662 432.58 672.7 425.2 680.75 417.57 685.07 409.68 685.11 401.79 681.3 393.63 673.63 385.2 662.92 376.77 651.02 368.3 639.05 359.81 628.4 351.35 620.43 342.92 615.58 334.56 614.09 326.27 616.23 318.11 621.03 310.13 627.6 302.27 635.52 294.64 643.14 287.32 649.45 280.16 654.22 273.34 656.25 266.94 655.26 260.7 651.57 254.89 644.96 249.53 635.87 244.31 624.97 239.51 612.67 235.12 599.66 230.76 586.47 226.72 573.61 222.96 561.49 219.05 550.36 215.28 540.4 211.59 531.63 207.57 524.14 203.5 517.68 199.36 512.05 194.78 507.37 190.08 503.11 185.28 499.04 180.12 495.42 174.95 491.64 169.89 487.51 164.72 483.49 159.85 478.94 155.44 473.79 151.28 468.59 147.79 462.75 145.12 456.26 142.95 449.71 141.7 442.55 141.4 434.79 141.62 427 142.69 418.66 144.54 409.8 146.58 400.94 149.09 391.79 151.87 382.39 154.41 373 157 363.37 159.53 353.54 161.55 343.73 163.45 333.74 165.25 323.62 166.57 313.56 167.91 303.45 169.34 293.38 170.56 283.5 172.09 273.81 174.02 264.45 176.06 255.52 178.69 247.12 181.96 239.44 185.57 232.41 189.89 226.27 194.9 221.16 200.33 216.78 206.41 213.42 213.08 211.06 220.08 209.14 227.56 207.92 235.43 207.19 243.48 206.22 251.81 205.19 260.34 203.8 268.92 201.38 277.61 198.13 286.38 193.92 295.1 188.38 303.85 181.92 312.63 174.75 321.32 166.93 330.04 159.12 338.78 151.81 347.46 145.21 356.18 140.03 364.96 136.68 373.7 134.99 382.53 135.39 391.44 137.77 400.35 141.35 409.36 146.1 418.48 151.46" stroke-dasharray="10 9" transform="rotate(12.12, 400, 400)" opacity="0.65"></path><path d="M417.15 162.58C425.84 167.33 434.33 171.44 442.58 174.55 450.82 176.06 458.78 176.33 466.43 175.51 474.02 173.43 481.23 170.91 488.01 168.4 497.75 165.05 514.34 165.53 521.04 170.5 525.16 175.61 528.71 182.12 531.73 189.76 534.75 198.09 537.39 207.02 539.76 216.23 542.43 225.35 545.11 234.29 547.96 242.87 551.49 250.85 555.51 258.29 560.16 265.2 565.8 271.37 572.25 277.1 579.53 282.49 587.77 287.31 596.69 291.99 606.1 296.67 615.91 301.01 625.67 305.54 635 310.34 643.74 315 651.31 320.05 657.31 325.53 661.77 330.97 664.18 336.88 664.35 343.26 662.77 349.63 659.13 356.47 653.68 363.76 647.32 371.05 640.05 378.79 632.39 386.98 625.43 395.17 619.31 403.63 614.43 412.36 611.36 421.12 609.85 430.18 609.85 439.54 611.59 448.98 614.37 458.76 617.81 468.85 622.01 479.03 626.04 489.52 629.52 500.23 632.58 510.92 634.42 521.7 634.85 532.41 634.15 542.8 631.83 552.81 627.94 562.18 622.88 570.78 616.46 578.33 608.89 584.57 600.56 589.61 591.46 593.06 581.86 594.79 572 595.34 561.98 594.34 551.98 592.03 542.1 589.32 532.42 586.09 523.02 582.87 513.93 580.75 505.13 579.75 496.64 580.42 488.46 583.5 480.51 588.83 472.75 596.47 465.21 606.35 457.76 617.81 450.35 630.14 443.07 642.61 435.73 654.11 428.31 663.6 420.94 670.5 413.43 673.89 405.76 673.36 398.1 669.4 390.27 661.96 382.26 651.81 374.26 640.56 366.28 629.18 358.37 618.88 350.47 610.89 342.67 605.61 334.99 603.32 327.37 604.35 319.93 607.93 312.71 613.37 305.57 620.39 298.71 627.54 292.16 633.93 282.69 640.96 265.77 639.51 258.36 630.52 253.61 621.77 249.21 611.32 245.15 599.72 241.02 587.46 237.13 574.98 233.43 562.74 229.51 550.99 225.66 540 221.84 529.93 217.65 520.84 213.39 512.71 209.04 505.44 204.28 499.07 199.42 493.31 194.49 487.96 189.26 483.19 184.07 478.51 179.04 473.77 173.95 469.29 169.22 464.52 164.98 459.36 161.01 454.27 157.73 448.68 155.25 442.56 153.27 436.43 152.19 429.74 152.02 422.49 152.34 415.23 153.49 407.42 155.38 399.07 157.46 390.73 159.98 382.08 162.79 373.17 165.37 364.28 168 355.15 170.59 345.86 172.69 336.63 174.68 327.28 176.55 317.89 177.94 308.64 179.31 299.45 180.73 290.44 181.89 281.7 183.28 273.28 184.99 265.33 186.74 257.84 188.99 250.99 191.79 244.9 196.72 237.09 210.39 226.7 219.05 223.92 225.37 222.46 232.19 221.41 239.45 220.55 246.94 219.19 254.76 217.55 262.84 215.36 271.04 212.09 279.41 207.97 287.89 202.94 296.39 196.77 304.97 189.86 313.58 182.48 322.17 174.69 330.79 167.14 339.41 160.27 348 154.23 356.61 149.65 365.23 146.86 373.83 145.66 382.46 146.41 391.11 148.98 399.76 152.61 408.44 157.32 417.13 162.57" stroke-dasharray="4 6" transform="rotate(16.16, 400, 400)" opacity="0.55"></path><path d="M413.67 173.7C421.9 178.37 429.86 182.47 437.53 185.66 445.18 187.38 452.5 187.95 459.47 187.47 466.37 185.73 472.87 183.47 478.93 181.08 487.64 177.52 502.45 176.08 508.52 179.49 512.37 183.44 515.79 188.79 518.84 195.35 522.02 202.75 524.99 210.95 527.88 219.66 531.16 228.56 534.59 237.53 538.31 246.39 542.72 254.89 547.65 263.03 553.19 270.75 559.6 277.88 566.71 284.57 574.47 290.89 582.96 296.65 591.91 302.16 601.1 307.53 610.45 312.51 619.54 317.51 628.03 322.62 635.82 327.51 642.4 332.65 647.43 338.1 651.03 343.44 652.72 349.17 652.4 355.3 650.53 361.4 646.85 367.94 641.58 374.93 635.56 381.91 628.73 389.37 621.55 397.31 614.99 405.25 609.15 413.51 604.38 422.06 601.19 430.64 599.38 439.52 598.91 448.69 600.04 457.89 602.16 467.36 604.97 477.04 608.59 486.71 612.21 496.52 615.49 506.36 618.58 516.03 620.73 525.55 621.72 534.73 621.83 543.46 620.54 551.57 617.83 558.84 614.09 565.3 609.03 570.62 602.82 574.63 595.8 577.63 587.93 579.22 579.41 579.4 570.49 578.81 561.23 577.13 551.79 574.65 542.32 572.27 532.89 569.86 523.58 567.9 514.44 567.31 505.51 568.05 496.82 570.5 488.36 575.18 480.11 581.85 472.06 590.43 464.21 600.76 456.49 612.18 448.88 624 441.39 635.58 433.94 645.96 426.49 654.25 419.1 660.05 411.67 662.59 404.18 661.56 396.71 657.49 389.16 650.31 381.53 640.69 373.91 630.09 366.39 619.3 359 609.38 351.63 601.43 344.4 595.81 337.36 592.82 330.36 592.83 323.57 595.24 317.03 599.53 310.56 605.54 304.37 612.02 298.49 618.19 289.95 625.95 274.65 629.06 267.88 623.3 263.46 616.79 259.31 608.41 255.41 598.6 251.39 587.79 247.52 576.32 243.77 564.63 239.76 552.95 235.76 541.62 231.74 530.86 227.36 520.73 222.9 511.35 218.34 502.73 213.42 494.87 208.42 487.66 203.41 480.98 198.15 474.88 192.99 469.08 188.03 463.43 183.08 458.12 178.51 452.76 174.47 447.22 170.72 441.82 167.66 436.12 165.4 430.05 163.62 424.02 162.7 417.56 162.67 410.65 163.09 403.73 164.3 396.36 166.22 388.52 168.33 380.69 170.86 372.59 173.67 364.3 176.28 356.04 178.95 347.61 181.59 339.1 183.77 330.67 185.85 322.22 187.81 313.85 189.29 305.65 190.73 297.62 192.16 289.9 193.3 282.47 194.61 275.47 196.16 269.02 198.65 260.3 206.2 247.13 211.54 242.79 217.97 239.57 234.21 235.43 243.83 233.51 250.65 231.53 257.85 229.1 265.35 226.03 273.01 221.89 280.9 216.96 288.95 211.22 297.08 204.55 305.32 197.36 313.62 189.91 321.94 182.32 330.31 175.14 338.68 168.79 347.05 163.36 355.43 159.4 363.79 157.17 372.15 156.43 380.5 157.5 388.81 160.23 397.13 163.91 405.43 168.55 413.66 173.69" stroke-dasharray="8 3" transform="rotate(20.200000000000003, 400, 400)" opacity="0.29"></path><path d="M408.48 184.82C416.23 189.39 423.67 193.47 430.79 196.73 437.89 198.64 444.63 199.49 451.01 199.35 460.3 197.01 476.73 190.23 483.83 187.81 490.46 187.26 501.89 194.14 506.98 201.62 510.52 207.92 514 215.15 517.52 223.08 521.49 231.41 525.7 240.06 530.26 248.82 535.48 257.48 541.19 265.97 547.45 274.21 554.43 282.04 561.96 289.52 569.97 296.66 578.48 303.32 587.23 309.7 596.01 315.86 604.75 321.63 613.07 327.31 620.67 332.97 627.49 338.37 633.1 343.88 637.23 349.57 640.03 355.12 641.09 360.94 640.34 367.07 638.25 373.14 634.58 379.58 629.51 386.41 623.82 393.22 617.42 400.46 610.71 408.15 604.55 415.84 598.99 423.81 594.34 432.02 591.08 440.25 589.01 448.71 588.13 457.38 588.7 466.02 590.19 474.82 592.38 483.68 595.4 492.45 598.56 501.17 601.54 509.73 604.53 518.01 606.8 525.94 608.17 533.34 608.66 543.3 602.25 557.74 595.44 561.62 589.75 563.06 583.15 563.37 575.82 562.63 568 561.53 559.71 559.8 551.09 557.73 542.3 556.15 533.39 554.93 524.47 554.47 515.59 555.51 506.81 557.94 498.17 562.01 489.67 568.03 481.35 575.75 473.2 584.96 465.2 595.43 457.34 606.56 449.63 617.69 442.02 628.29 434.5 637.51 427.06 644.64 419.68 649.41 412.33 651.17 405 649.71 397.7 645.56 390.4 638.65 383.11 629.57 375.81 619.6 368.7 609.41 361.78 599.9 354.86 592.04 348.15 586.16 341.66 582.57 335.19 581.67 328.97 582.99 323.02 586.14 317.09 591.07 311.45 596.72 306.12 602.44 298.3 610.4 284.17 617.01 277.8 614.15 273.55 609.81 269.52 603.57 265.66 595.76 261.62 586.77 257.68 576.79 253.79 566.2 249.62 555.27 245.43 544.27 241.2 533.47 236.62 522.95 231.96 512.91 227.22 503.43 222.17 494.49 217.09 486.13 212.03 478.3 206.8 470.99 201.71 464.06 196.87 457.44 192.1 451.16 187.75 445 183.93 438.87 180.43 432.93 177.62 426.86 175.57 420.62 174 414.45 173.25 408.01 173.33 401.28 173.86 394.56 175.12 387.52 177.06 380.15 179.18 372.79 181.71 365.28 184.51 357.68 187.14 350.11 189.84 342.5 192.52 334.91 194.79 327.4 196.95 319.99 199 312.77 200.59 305.73 202.11 298.96 203.6 292.58 205.41 283.66 209.7 269.01 212.61 263.51 216.15 259.08 226.17 253.14 232.74 251.04 237.59 249.4 242.96 247.67 248.78 245.68 254.87 242.92 261.36 239.62 268.18 235.66 275.2 230.72 282.48 225.07 289.96 218.79 297.57 211.79 305.31 204.49 313.16 197.14 321.07 189.87 329.03 183.17 337.02 177.41 345.04 172.62 353.06 169.29 361.05 167.61 369.06 167.31 377.04 168.66 384.95 171.54 392.88 175.23 400.73 179.79 408.47 184.81" stroke-dasharray="2 6" transform="rotate(24.24, 400, 400)" opacity="0.86"></path><path d="M402.24 195.94C409.5 200.41 416.44 204.44 423.05 207.75 429.65 209.84 435.91 210.96 441.81 211.15 450.43 209.36 465.81 203.13 472.6 200.42 479.09 199.05 490.94 203.07 496.61 208.77 500.63 213.87 504.69 219.97 508.9 226.89 513.56 234.37 518.5 242.35 523.8 250.65 529.67 259.07 535.98 267.54 542.75 275.93 550.08 284.11 557.79 292.08 565.81 299.8 574.12 307.17 582.49 314.28 590.71 321.16 598.73 327.7 606.2 334.09 612.87 340.37 618.74 346.4 623.42 352.43 626.7 358.52 628.78 364.45 629.28 370.54 628.18 376.82 625.93 383.02 622.29 389.49 617.45 396.24 612.1 402.97 606.13 410.03 599.87 417.44 594.09 424.84 588.83 432.42 584.32 440.15 581.02 447.87 578.75 455.71 577.5 463.61 577.56 471.47 578.48 479.31 580.06 487.07 582.48 494.67 585.12 502.06 587.73 509.11 591.62 518.98 595.53 535 594.73 540.59 591.79 544.38 579.63 546.53 570.85 545.34 564.23 544.34 557.03 543.1 549.4 541.9 541.51 541.47 533.36 541.67 525.07 542.81 516.72 545.43 508.35 549.4 500.03 554.85 491.76 561.94 483.59 570.37 475.55 579.89 467.6 590.24 459.78 600.86 452.11 611.15 444.51 620.7 437.03 628.76 429.66 634.77 422.34 638.58 415.11 639.64 407.96 637.81 400.83 633.63 393.77 627.01 386.78 618.45 379.79 609.11 373.03 599.5 366.51 590.42 359.99 582.72 353.71 576.67 347.68 572.59 341.65 570.87 335.88 571.18 330.38 573.22 324.89 577.04 319.66 581.75 314.72 586.82 307.41 594.54 294 603.53 287.8 603.1 283.62 600.72 279.57 596.56 275.64 590.8 271.5 583.82 267.41 575.64 263.33 566.59 258.97 556.93 254.57 546.86 250.12 536.65 245.36 526.4 240.53 516.33 235.66 506.58 230.54 497.11 225.42 488.08 220.38 479.49 215.23 471.28 210.28 463.46 205.61 456 201.06 448.84 196.95 441.92 193.38 435.17 190.15 428.6 187.59 422.08 185.77 415.56 184.41 409.12 183.83 402.59 184.03 395.94 184.64 389.31 185.95 382.51 187.9 375.57 190.02 368.62 192.54 361.67 195.32 354.78 197.95 347.91 200.67 341.12 203.38 334.48 205.72 327.91 207.97 321.55 210.11 315.47 212.63 306.75 216.9 291.63 218.96 285.48 223.77 276.25 235.05 266.78 240.65 264.2 244.8 262 249.43 259.57 254.51 256.75 259.84 253.15 265.58 248.98 271.66 244.19 277.95 238.56 284.53 232.36 291.35 225.71 298.3 218.57 305.44 211.33 312.71 204.25 320.06 197.42 327.51 191.29 334.99 186.17 342.53 182.05 350.08 179.34 357.62 178.19 365.17 178.3 372.7 179.91 380.15 182.89 387.61 186.58 394.98 191.05 402.23 195.93" stroke-dasharray="11 5" transform="rotate(28.28, 400, 400)" opacity="0.60"></path><path d="M395.72 207.05C402.49 211.41 408.97 215.38 415.15 218.73 424.24 221.65 440.87 221.64 448.4 219.39 455.67 216.16 469.01 211.39 475.29 211.13 481.7 212.95 494.93 223.28 502.1 231.49 507.36 237.89 512.91 244.93 518.79 252.46 525.13 260.27 531.84 268.32 538.88 276.47 546.32 284.62 553.99 292.7 561.8 300.64 569.72 308.4 577.55 315.98 585.07 323.35 592.28 330.48 598.87 337.44 604.6 344.26 609.56 350.87 613.36 357.4 615.87 363.9 617.3 370.26 617.33 376.66 615.93 383.13 613.58 389.53 610.02 396.07 605.41 402.77 600.41 409.45 594.85 416.32 589.03 423.4 583.64 430.47 578.66 437.59 574.31 444.7 571.01 451.81 568.57 458.89 567.02 465.87 566.64 472.8 567.02 479.56 568.03 486.08 570.91 495.43 577.63 511.59 580.29 517.96 581.13 525.91 571.38 529.4 564.38 528.47 558.96 528.06 552.92 527.73 546.37 527.72 539.51 528.64 532.29 530.33 524.83 533.02 517.22 537.09 509.49 542.37 501.71 548.91 493.9 556.73 486.12 565.55 478.4 575.08 470.72 585.06 463.12 594.98 455.65 604.32 448.22 612.77 440.9 619.69 433.7 624.63 426.54 627.56 419.49 628 412.55 625.86 405.63 621.69 398.81 615.37 392.1 607.33 385.39 598.6 378.95 589.58 372.76 580.94 366.57 573.44 360.64 567.31 354.96 562.84 346.56 560.12 331.01 565.38 323.85 571.5 316.84 578.59 303.75 588.86 297.55 590.31 293.32 589.6 289.17 587.29 285.1 583.49 280.81 578.52 276.53 572.29 272.24 565.04 267.68 557.01 263.09 548.33 258.45 539.23 253.55 529.84 248.61 520.35 243.66 510.92 238.52 501.55 233.44 492.4 228.47 483.55 223.47 474.91 218.71 466.6 214.26 458.62 209.97 450.86 206.14 443.38 202.85 436.15 199.9 429.06 197.61 422.15 196.02 415.36 194.86 408.65 194.44 402 194.76 395.39 195.45 388.8 196.79 382.22 198.74 375.63 200.85 369.05 203.34 362.62 206.09 356.37 208.71 350.13 211.43 344.1 214.16 338.32 217.73 329.88 223.82 314.78 226.36 308.3 230.38 297.75 237.37 286.07 240.69 283.11 244.57 279.8 254.8 271.78 261.15 266.47 265.73 262.04 270.71 257.09 276.04 251.61 281.56 245.46 287.4 238.91 293.49 232.08 299.72 224.99 306.17 217.99 312.77 211.32 319.48 205.04 326.3 199.55 333.19 195.12 340.15 191.66 347.14 189.56 354.14 188.92 361.17 189.39 368.17 191.23 375.11 194.29 382.07 197.96 388.95 202.32 395.71 207.05" stroke-dasharray="2 11" transform="rotate(32.32, 400, 400)" opacity="0.42"></path><path d="M389.74 218.17C396.03 222.4 402.09 226.3 407.9 229.65 416.47 232.83 432.38 233.81 439.75 232.11 446.97 229.26 460.73 224.22 467.45 223.2 474.42 223.79 489.1 230.83 497.06 237.21 502.78 242.4 508.76 248.32 515.02 254.82 521.63 261.73 528.5 269.02 535.58 276.57 542.9 284.27 550.32 292.07 557.72 299.86 565.1 307.62 572.25 315.29 578.99 322.83 585.35 330.25 591.03 337.53 595.85 344.66 599.93 351.66 602.93 358.54 604.73 365.32 605.6 372 605.23 378.64 603.62 385.24 601.21 391.8 597.75 398.37 593.4 404.97 588.73 411.56 583.58 418.21 578.18 424.9 573.17 431.6 568.48 438.18 564.31 444.64 561.04 451.07 558.48 457.33 556.69 463.37 555.86 472.18 558.33 487.9 560.81 494.51 564.33 510.5 549.63 513.83 541.73 515.59 535.95 517.9 529.76 521.03 523.24 525.11 516.53 530.39 509.6 536.69 502.54 543.97 495.4 552.21 488.2 561.09 480.99 570.35 473.77 579.75 466.58 588.82 459.46 597.14 452.35 604.47 445.33 610.29 438.42 614.24 431.52 616.35 424.73 616.25 418.05 613.87 411.39 609.74 404.84 603.73 398.41 596.21 391.98 588.08 385.81 579.64 379.91 571.47 373.99 564.22 368.33 558.08 362.92 553.32 354.9 549.61 339.96 551.92 333 556.61 326.13 562.76 313.05 573.3 306.72 576.03 300.23 576.24 287.13 568.53 280.4 560.97 275.69 554.77 270.93 547.76 266.16 540.14 261.17 532.07 256.19 523.65 251.23 515.08 246.15 506.35 241.18 497.65 236.36 489.07 231.56 480.54 227.04 472.21 222.85 464.14 218.86 456.18 215.34 448.47 212.35 441.02 209.7 433.67 207.67 426.54 206.31 419.62 205.36 412.76 205.09 406.06 205.51 399.52 206.27 393 207.65 386.6 209.58 380.34 211.67 374.07 214.12 368.08 216.82 362.37 220.77 353.97 228.51 338.76 232.02 332.05 237.33 320.47 243.92 306.71 246.17 303.11 248.51 299.41 254.72 291.6 258.76 287 261.7 283.28 265.04 279.2 268.77 274.69 272.66 269.55 276.92 263.97 281.53 257.99 286.3 251.53 291.38 244.83 296.73 238.04 302.21 231.19 307.93 224.58 313.83 218.45 319.82 212.81 325.97 208.02 332.22 204.28 338.52 201.49 344.9 199.98 351.31 199.79 357.76 200.61 364.2 202.64 370.62 205.75 377.05 209.36 383.43 213.6 389.73 218.17" stroke-dasharray="4 4" transform="rotate(36.36, 400, 400)" opacity="0.31"></path><path d="M385.03 229.29C390.89 233.38 396.57 237.19 402.06 240.53 407.55 243.01 412.86 244.81 417.99 245.92 428.3 245.3 438.04 242.85 447.36 239.88 457.09 236.42 466.85 235.12 476.91 236.76 487.91 240.73 499.67 248.11 512.21 258.28 525.71 270.29 539.66 283.93 553.38 298.33 566.59 313.1 578.05 327.83 586.6 342.15 592.39 356.25 594.03 369.92 591.24 383.14 588.81 389.71 585.49 396.2 581.4 402.62 577.08 409.03 572.32 415.38 567.34 421.66 562.69 427.93 558.3 433.97 554.32 439.76 551.1 445.53 548.48 451.01 546.48 456.18 545.14 466.33 545.87 474.92 547.82 481.61 552.63 489.8 553.56 496.98 546.85 499.27 539.95 503.29 530.78 509.56 519.96 518.97 508.29 532.2 495.65 548.23 482.6 565.55 469.35 582.43 456.04 596 442.98 603.58 436.46 604.98 430.01 604.4 423.66 601.85 417.31 597.79 411.06 592.11 404.91 585.09 398.76 577.54 392.86 569.69 387.2 561.99 381.53 555.03 376.09 548.95 370.88 544 360.36 538.7 350.65 538.57 341.65 542.3 332.34 549.4 323.51 556.19 315.01 560.62 305.9 562.86 296.83 560.61 287.75 554.1 277.94 544.61 268.09 532.05 258.43 517.69 248.52 502.23 239.35 486.39 231.43 470.94 224.36 455.54 219.29 440.87 216.66 427.14 215.9 420.33 215.78 413.72 216.3 407.32 217.12 400.95 218.51 394.76 220.43 388.79 222.48 382.82 224.87 377.18 227.52 371.89 230.08 366.6 232.76 361.64 235.49 357.04 240.13 347.81 244.57 339.97 248.71 333.47 251.57 326.76 254.47 321.04 257.68 315.92 260.4 309.75 264.07 303.26 268.87 295.87 273.95 286.43 280.44 275.57 288.21 263.46 296.48 250.19 305.92 237.15 316.23 225.74 326.88 216.54 338.16 211.29 349.75 210.83 355.59 211.94 361.47 214.12 367.36 217.25 373.26 220.8 379.16 224.89 385.02 229.29" stroke-dasharray="2 2" transform="rotate(40.400000000000006, 400, 400)" opacity="0.62"></path><path d="M382.18 240.41C393.09 247.78 403.56 253.67 413.56 257.26 423.65 257.4 433.47 255.75 443.13 253.3 453.19 249.92 463.46 248 474.11 248.37 485.5 250.43 497.51 255.53 510.02 263.31 523.06 272.91 536.15 284.41 548.6 297.06 560.24 310.45 569.97 324.19 576.84 337.8 581.24 351.47 581.94 364.8 578.81 377.59 573.59 390.36 565.79 402.65 556.5 414.28 548.35 425.92 541.41 436.28 536.4 445.24 534.31 457.63 538.88 473.8 540.98 478.14 541.51 481.28 539.87 484.32 535.98 488.18 530.89 494.51 523.67 503.1 514.76 514.37 505.04 528.48 494.16 544.37 482.62 560.53 470.8 575.5 458.68 586.91 446.58 592.66 434.47 592.78 422.48 586.2 410.8 573.97 399.12 559.92 388.23 546.04 378.13 534.88 367.92 528.63 358.34 526.83 349.32 528.67 339.99 534.03 330.98 539.88 322.19 544.46 312.88 547.96 303.57 547.99 294.29 544.38 284.45 538.27 274.71 529.05 265.3 517.64 255.87 504.88 247.29 491.14 240.03 477.21 233.66 463.03 229.22 449.21 227.07 436.11 226.25 423.06 227.69 410.76 231.27 399.38 235.34 387.99 240.45 378 246.02 369.33 250.72 360.57 255.31 353.01 259.65 346.48 262.79 339.54 265.91 333.17 269.2 326.96 271.88 319.61 275.28 311.67 279.55 302.78 283.89 292.22 289.43 280.58 296.1 268.22 303.11 255.39 311.23 243.33 320.24 233.28 329.51 225.57 339.49 221.62 349.92 222.03 360.45 225.37 371.26 231.92 382.17 240.4" stroke-dasharray="8 3" transform="rotate(44.44, 400, 400)" opacity="0.88"></path><path d="M381.56 251.53C391.72 258.63 401.72 264.51 411.5 268.45 421.38 269.32 431.23 268.48 441.12 266.68 451.35 263.64 461.89 261.48 472.78 260.97 484.19 261.55 496.04 264.68 508.09 270.22 520.31 277.37 532.24 286.52 543.22 297.06 553.23 308.51 561.26 320.66 566.59 332.99 569.76 345.59 569.7 358.02 566.35 369.99 561.35 382.01 554.16 393.49 545.66 404.19 538.14 414.89 531.53 424.23 526.44 432.17 523.4 443.24 525.45 458.68 527.04 464.28 527.76 468.8 526.81 473.76 524.02 479.86 520.36 488.22 514.81 498.58 507.64 511.01 499.75 525.32 490.61 540.51 480.63 555.13 470.34 568.07 459.55 577.4 448.54 581.5 437.49 580.75 426.36 574.22 415.34 562.86 404.33 549.91 393.9 536.89 384.07 525.94 374.15 518.97 364.68 515.74 355.6 515.81 346.26 519.32 337.13 523.88 328.14 528.01 318.73 531.98 309.34 533.47 300.03 532.07 290.37 528.79 280.92 522.63 271.94 514.17 263.12 504.36 255.23 493.15 248.69 481.27 243.05 468.93 239.23 456.53 237.54 444.49 237.04 432.42 238.6 420.87 242.11 410.08 246.07 399.29 251.02 389.69 256.46 381.22 261.18 372.61 265.88 364.89 270.38 357.86 273.81 350.33 277.18 343 280.62 335.54 283.39 327.01 286.67 317.81 290.63 307.77 294.47 296.53 299.28 284.61 305.08 272.51 311.05 260.52 318.04 249.72 325.91 241.17 333.95 234.94 342.74 232.22 352.1 233.4 361.52 237.03 371.39 243.44 381.56 251.53" stroke-dasharray="2 11" transform="rotate(48.48, 400, 400)" opacity="0.48"></path><path d="M383.23 262.65C392.71 269.45 402.24 275.28 411.76 279.49 421.38 281.02 431.14 281 441.05 279.94 451.22 277.45 461.71 275.38 472.47 274.4 483.53 273.95 494.82 275.52 506.03 279.15 517.15 284.04 527.7 290.86 537.11 299.17 545.48 308.4 551.92 318.57 555.87 329.21 557.98 340.23 557.31 351.32 553.85 362.13 549.13 373.05 542.55 383.52 534.82 393.29 527.91 403.06 521.67 411.62 516.59 418.95 512.79 429.41 512.43 445.87 513.27 453.39 513.89 459.46 513.28 466.28 511.22 474.33 508.62 484.2 504.39 495.66 498.69 508.52 492.42 522.4 484.9 536.4 476.43 549.23 467.66 560.11 458.22 567.46 448.37 570.1 438.45 568.63 428.27 562.25 417.98 551.74 407.68 539.88 397.76 527.77 388.24 517.15 378.64 509.71 369.32 505.3 360.27 503.77 351.01 505.45 341.86 508.48 332.83 511.7 323.5 515.44 314.22 517.6 305.09 517.63 295.8 516.46 286.82 512.81 278.44 506.99 270.34 500.01 263.22 491.41 257.45 481.79 252.55 471.64 249.35 461.02 248.1 450.35 247.89 439.58 249.53 429.01 252.95 418.86 256.77 408.71 261.54 399.42 266.81 390.92 271.51 382.28 276.26 374.19 280.89 366.44 284.57 358.2 288.19 349.9 291.84 341.3 294.79 331.83 298.1 321.74 301.9 311.05 305.46 299.64 309.79 287.98 314.94 276.62 320.13 265.81 326.22 256.48 333.13 249.49 340.13 244.7 347.89 243.11 356.3 244.93 364.74 248.76 373.75 254.98 383.23 262.65" stroke-dasharray="4 5" transform="rotate(52.52, 400, 400)" opacity="0.42"></path><path d="M386.99 273.77C395.82 280.23 404.86 285.95 414.03 290.36 423.28 292.48 432.77 293.22 442.44 292.95 452.29 291.18 462.4 289.47 472.66 288.4 483.03 287.4 493.42 287.89 503.51 290.03 513.31 293.04 522.36 297.78 530.18 303.97 536.98 310.96 541.96 319.03 544.7 327.78 545.94 336.93 544.81 346.41 541.35 355.86 536.94 365.43 530.96 374.78 523.98 383.67 517.68 392.56 511.83 400.53 506.84 407.61 503.59 414.75 501.33 421.17 499.9 427.06 499.84 433.35 499.96 439.57 499.87 446.05 500.18 453.54 499.61 461.87 497.95 471.29 496.03 482.03 492.77 493.88 488.22 506.47 483.27 519.39 477.14 531.84 470.04 542.71 462.68 551.55 454.55 557.09 445.85 558.48 437.08 556.44 427.88 550.28 418.37 540.62 408.86 529.83 399.5 518.64 390.37 508.49 381.18 500.8 372.13 495.5 363.23 492.61 354.19 492.57 345.21 493.97 336.33 495.98 327.28 498.95 318.32 501.06 309.6 501.76 300.87 501.87 292.55 500.03 284.89 496.3 277.61 491.7 271.33 485.49 266.35 478.04 262.18 470.11 259.58 461.38 258.73 452.23 258.78 442.95 260.49 433.49 263.79 424.05 267.45 414.61 272 405.62 277.07 397.05 281.69 388.36 286.43 379.88 291.14 371.46 295.03 362.65 298.89 353.6 302.74 344.2 305.93 334.22 309.36 323.77 313.15 313.01 316.61 301.98 320.67 291.08 325.39 280.86 330.03 271.49 335.45 263.74 341.61 258.31 347.79 254.87 354.72 254.27 362.31 256.62 369.91 260.57 378.16 266.54 386.99 273.77" stroke-dasharray="10 9" transform="rotate(56.56, 400, 400)" opacity="0.75"></path><path d="M392.37 284.89C400.57 290.99 409.06 296.54 417.75 301.07 426.49 303.68 435.5 305.12 444.67 305.63 453.93 304.67 463.35 303.54 472.78 302.7 482.19 301.57 491.42 301.48 500.19 302.62 508.57 304.25 516.09 307.33 522.36 311.71 527.71 316.68 531.39 322.77 533.12 329.67 533.66 336.93 532.21 344.72 528.84 352.75 524.77 360.89 519.4 369.09 513.14 377.15 507.44 385.22 502 392.76 497.18 399.78 493.75 406.9 491.07 413.7 489.05 420.34 488.24 427.38 487.64 434.65 486.98 442.35 486.83 450.86 486.09 460.15 484.56 470.26 482.97 481.18 480.33 492.73 476.63 504.44 472.67 515.97 467.67 526.61 461.72 535.49 455.59 542.4 448.65 546.31 441.04 546.64 433.38 544.19 425.15 538.3 416.47 529.5 407.79 519.75 399.09 509.52 390.46 499.94 381.8 492.22 373.16 486.3 364.59 482.31 355.96 480.75 347.34 480.58 338.85 481.2 330.29 483.03 321.88 484.55 313.77 485.24 305.77 485.85 298.24 485.05 291.43 482.73 285.04 479.89 279.62 475.57 275.43 469.98 271.97 464.02 269.93 457.07 269.45 449.4 269.72 441.62 271.47 433.32 274.63 424.66 278.11 416 282.42 407.39 287.24 398.87 291.73 390.26 296.41 381.57 301.11 372.77 305.16 363.69 309.2 354.32 313.24 344.65 316.68 334.68 320.29 324.45 324.15 314.19 327.64 304.04 331.59 294.32 336.06 285.54 340.38 277.75 345.35 271.63 350.96 267.69 356.53 265.48 362.79 265.73 369.7 268.47 376.6 272.46 384.17 278.13 392.37 284.89" stroke-dasharray="5 4" transform="rotate(60.599999999999994, 400, 400)" opacity="0.41"></path><path d="M398.7 296C406.27 301.71 414.14 307.04 422.21 311.6 430.3 314.59 438.62 316.64 447.04 317.87 455.47 317.75 463.96 317.34 472.32 316.97 480.56 316.1 488.49 315.86 495.83 316.5 505.77 318.24 518.97 327.82 521.18 335.33 521.18 340.88 519.54 347.1 516.34 353.8 512.64 360.58 507.86 367.69 502.29 375 497.18 382.31 492.19 389.47 487.6 396.49 484.1 403.59 481.13 410.72 478.66 417.97 477.21 425.54 475.97 433.5 474.75 441.93 474.07 450.89 473.01 460.47 471.39 470.55 469.88 480.99 467.56 491.63 464.4 502 461.13 511.84 456.96 520.57 451.94 527.48 446.81 532.62 440.89 535.12 434.28 534.6 427.62 531.88 420.34 526.34 412.52 518.38 404.7 509.65 396.73 500.39 388.73 491.49 380.73 483.93 372.66 477.66 364.63 472.87 356.58 470.05 348.55 468.46 340.66 467.71 332.79 468.21 325.12 468.76 317.81 468.94 307.37 469.15 290.41 464 284.72 458.28 281.94 453.85 280.41 448.38 280.26 442.02 280.72 435.58 282.47 428.39 285.47 420.57 288.74 412.74 292.78 404.66 297.32 396.4 301.62 388.11 306.17 379.55 310.8 370.78 314.91 361.88 319.07 352.69 323.25 343.33 326.9 333.91 330.69 324.45 334.66 315.22 338.27 306.33 342.22 298.09 346.56 290.94 353.06 282.52 368.64 277.01 377.86 280.49 384.18 284.42 391.13 289.75 398.7 296" stroke-dasharray="2 5" transform="rotate(64.64, 400, 400)" opacity="0.21"></path><path d="M405.19 307.12C412.11 312.4 419.27 317.45 426.58 321.95 433.9 325.21 441.36 327.75 448.83 329.61 456.27 330.31 463.65 330.66 470.79 330.92 481.04 330.55 498.11 332.2 504.01 335 507.79 338.91 507.69 351.23 503.85 359.25 500.55 364.85 496.34 370.99 491.45 377.6 486.92 384.2 482.39 390.97 478.09 397.87 474.62 404.85 471.49 412.07 468.72 419.57 466.77 427.29 465 435.43 463.27 443.96 462.06 452.77 460.61 461.97 458.79 471.36 457.15 480.78 454.94 490.05 452.08 498.75 449.21 506.77 445.61 513.58 441.3 518.66 436.93 522.22 431.85 523.54 426.11 522.37 420.34 519.52 413.96 514.38 407.01 507.26 400.06 499.53 392.9 491.25 385.65 483.1 378.41 475.89 371.08 469.53 363.77 464.25 356.48 460.48 349.23 457.71 342.13 455.72 335.13 454.88 328.35 454.3 321.97 453.64 312.97 453.11 298.8 448.69 294.27 444.17 291.58 438.54 292.64 422.61 296.31 412.55 299.35 405.59 303.09 398.2 307.31 390.5 311.37 382.8 315.71 374.76 320.2 366.49 324.29 358.21 328.47 349.73 332.7 341.22 336.51 332.83 340.43 324.58 344.49 316.75 348.23 309.39 352.22 302.8 356.51 297.32 362.86 291.23 377.56 288.78 386.08 292.65 391.9 296.45 398.28 301.39 405.19 307.12" stroke-dasharray="2 9" transform="rotate(68.68, 400, 400)" opacity="0.11"></path><path d="M411.04 318.24C423.51 327.23 436.59 335.08 449.44 340.78 462.06 342.65 473.82 343.85 483.34 345.76 491.49 346.69 496.18 350.22 496.4 356.64 494.78 363.22 489.23 372.59 480.61 384.46 473.11 396.33 465.69 409.71 459.22 424.16 455.26 439.07 451.43 455.39 447.03 471.86 443.51 487.54 438.09 500.92 430.49 509 422.83 512.22 412.79 507.86 400.62 496.14 388.45 482.54 375.47 468.3 362.54 456.37 349.81 448.82 337.43 443.85 326.48 440.07 316.39 438.42 308.55 435.17 304.08 429.28 301.29 423.41 302.24 414.34 307.15 402.15 312.8 389.96 320.59 375.97 329.3 361.25 336.91 346.81 345.04 332.27 353.47 319.4 360.84 308.49 369.18 301.29 378.65 299.56 387.77 301.15 398.57 307.81 411.04 318.24" stroke-dasharray="5 6" transform="rotate(72.72, 400, 400)" opacity="0.75"></path><path d="M415.51 329.36C426.53 337.53 437.72 345.15 448.35 351.31 458.73 354.5 467.99 357.05 475.08 359.83 482.65 363.07 479.54 379.75 469.77 394.28 463.25 404.82 456.44 417.05 450.11 430.27 445.62 443.59 441.15 457.73 436.34 471.27 432.38 483.62 427.08 493.42 420.19 498.52 413.37 499.9 404.64 495.33 394.16 485.02 383.67 473.29 372.54 460.58 361.54 449.16 350.76 440.72 340.46 434.12 331.58 428.73 323.46 425.28 317.38 421.1 314.2 415.31 312.28 409.78 313.48 401.83 317.99 391.34 323.09 380.84 330.12 368.92 338.12 356.63 345.39 344.74 353.29 333.27 361.48 323.72 368.89 315.9 377.05 311.43 385.98 311.45 394.61 313.77 404.49 320.06 415.51 329.36" stroke-dasharray="9 0" transform="rotate(76.76, 400, 400)" opacity="0.34"></path><path d="M418.04 340.48C427.54 347.74 436.82 354.9 445.28 361.19 457.03 367.15 470.8 377.01 470.8 384.04 469.16 389 465.08 396.01 458.93 405.2 453.38 414.38 447.32 424.97 441.36 436.2 436.69 447.32 431.9 458.65 426.87 468.92 422.56 477.98 417.33 484.57 411.03 487.23 404.86 487.27 397.29 482.77 388.42 473.91 379.56 464 370.31 452.98 361.33 442.5 352.54 433.89 344.34 426.4 337.47 419.91 331.2 414.94 326.71 409.78 324.62 403.82 323.44 398.21 324.79 391.04 328.83 382.17 333.33 373.3 339.53 363.64 346.66 354.06 353.38 344.89 360.77 336.51 368.47 330.07 375.65 324.96 383.41 322.69 391.65 323.93 399.69 326.63 408.54 332.36 418.04 340.48" stroke-dasharray="2 10" transform="rotate(80.80000000000001, 400, 400)" opacity="0.99"></path><path d="M418.33 351.6C426.25 357.87 433.65 364.33 440.12 370.38 448.97 377.21 458.41 389.21 457.85 396.32 456.4 401.12 453.08 407.35 448.09 415.12 443.51 422.88 438.29 431.5 432.94 440.31 428.41 448.92 423.64 457.26 418.69 464.34 411.73 472.39 394.68 472.27 384.13 462.79 376.82 454.68 369.42 445.45 362.41 436.28 355.56 428.16 349.34 420.56 344.31 413.66 339.71 407.79 336.59 401.97 335.38 395.95 334.77 390.23 336.15 383.73 339.68 376.4 343.52 369.08 348.81 361.64 354.96 354.71 360.9 348.09 367.52 342.49 374.44 338.66 381.07 335.7 388.16 335.01 395.5 336.96 402.72 339.71 410.41 344.73 418.33 351.6" stroke-dasharray="1 2" transform="rotate(84.84, 400, 400)" opacity="0.71"></path><path d="M416.33 362.72C428.95 372.38 438.71 383 443.39 392.7 447.13 400 445.12 409.6 437.24 422.16 430.39 434.71 421.21 447.98 411.77 457.26 403.64 463.91 393.44 462.7 381.81 451.67 370.18 438.85 359.36 423.39 352.19 409.78 346.08 398.43 344.96 386.82 350.52 375.13 356.91 363.43 367.61 353.78 379.48 349.46 390.79 346.97 403.71 351.49 416.33 362.72" stroke-dasharray="2 3" transform="rotate(88.88, 400, 400)" opacity="0.18"></path><path d="M412.3 373.84C421.67 381.5 428.37 390.62 431.21 399.36 433.68 406.84 432.14 415.52 426.4 424.97 421.23 434.43 413.84 442.86 406.02 447.67 398.89 451.07 390.48 449.01 381.76 440.55 373.04 431.09 365.62 419.08 361.17 407.85 357.23 397.58 356.94 387.41 361.36 378.59 366.26 369.77 374.5 363.86 383.72 362.22 392.77 361.32 402.92 365.27 412.3 373.84" stroke-dasharray="9 4" transform="rotate(92.92, 400, 400)" opacity="0.90"></path><path d="M406.73 384.96C419.08 394.96 423.07 410.45 415.56 423.03 409.03 435.6 395.67 440.12 383.98 429.43 372.28 417.01 366.32 398.03 372.2 386.13 378.97 374.22 394.38 373.33 406.73 384.96" stroke-dasharray="0 11" transform="rotate(96.96, 400, 400)" opacity="0.89"></path></g></svg>